<?xml version="1.0" encoding="utf-8"?>
<!-- Generator: Adobe Illustrator 15.1.0, SVG Export Plug-In . SVG Version: 6.00 Build 0)  -->
<!DOCTYPE svg PUBLIC "-//W3C//DTD SVG 1.1//EN" "http://www.w3.org/Graphics/SVG/1.1/DTD/svg11.dtd">
<svg version="1.1" id="О_проекте" xmlns="http://www.w3.org/2000/svg" xmlns:xlink="http://www.w3.org/1999/xlink" x="0px"
	 y="0px" width="1920px" height="1225px" viewBox="0 0 1920 1225" enable-background="new 0 0 1920 1225" xml:space="preserve">
<g>
	<g>
		<g>
			<g>
				
					<linearGradient id="SVGID_1_" gradientUnits="userSpaceOnUse" x1="4763.0918" y1="193.8975" x2="4782.2935" y2="490.459" gradientTransform="matrix(-1 0 0 1 4774.3984 630.6797)">
					<stop  offset="0" style="stop-color:#EC1B89"/>
					<stop  offset="1" style="stop-color:#EE4323"/>
				</linearGradient>
				<path fill="url(#SVGID_1_)" d="M8.666,805.661c-32.99,0-59.729,26.743-59.729,59.733c0,28.896,20.53,52.992,47.796,58.525
					c0.497,0.024,0.996,0.067,1.496,0.146c6.642,1.026,13.69,1.214,20.318,0c0.771-0.144,1.541-0.202,2.301-0.201
					c27.141-5.632,47.544-29.665,47.544-58.471C68.392,832.404,41.646,805.661,8.666,805.661z"/>
				<path opacity="0.51" fill="#FFFFFF" enable-background="new    " d="M-15.622,771.339c0,17.471,14.163,31.623,31.623,31.623
					s31.62-14.152,31.62-31.623c0-17.456-14.16-31.612-31.62-31.612S-15.622,753.883-15.622,771.339z"/>
				<g>
					
						<linearGradient id="SVGID_2_" gradientUnits="userSpaceOnUse" x1="647.6079" y1="-116.1094" x2="989.2207" y2="-116.1094" gradientTransform="matrix(1 0 0 1 -674.9199 630.6797)">
						<stop  offset="0" style="stop-color:#EC1B89"/>
						<stop  offset="1" style="stop-color:#EE4323"/>
					</linearGradient>
					<path fill="url(#SVGID_2_)" d="M-27.312,514.57c0,94.332,76.48,170.803,170.807,170.803
						c94.329,0,170.806-76.472,170.806-170.803c0-94.332-76.477-170.803-170.806-170.803
						C49.169,343.769-27.312,420.238-27.312,514.57z"/>
					<path fill="#9DCA3B" d="M1753.624,637.008c0,32.85,26.62,59.471,59.468,59.471c32.84,0,59.468-26.621,59.468-59.471
						c0-32.84-26.627-59.467-59.468-59.467C1780.244,577.541,1753.624,604.168,1753.624,637.008z"/>
					
						<linearGradient id="SVGID_3_" gradientUnits="userSpaceOnUse" x1="3032.4082" y1="140.6162" x2="2720.4844" y2="128.1395" gradientTransform="matrix(-1 0 0 1 4774.3984 630.6797)">
						<stop  offset="0" style="stop-color:#F6921E"/>
						<stop  offset="1" style="stop-color:#8BC53F"/>
					</linearGradient>
					<path fill="url(#SVGID_3_)" d="M1729.353,766.341c0,75.396,61.114,136.49,136.479,136.49
						c75.384,0,136.499-61.097,136.499-136.49c0-75.382-61.115-136.487-136.499-136.487
						C1790.467,629.854,1729.353,690.959,1729.353,766.341z"/>
					
						<linearGradient id="SVGID_4_" gradientUnits="userSpaceOnUse" x1="2836.2715" y1="-387.8398" x2="2980.8438" y2="-387.8398" gradientTransform="matrix(-1 0 0 1 4774.3984 630.6797)">
						<stop  offset="0" style="stop-color:#F9EC31"/>
						<stop  offset="0.4011" style="stop-color:#D6DE23"/>
						<stop  offset="1" style="stop-color:#8BC53F"/>
					</linearGradient>
					<path fill="url(#SVGID_4_)" d="M1793.555,242.832c0,39.928,32.363,72.297,72.292,72.297c39.917,0,72.28-32.369,72.28-72.297
						c0-39.928-32.363-72.281-72.28-72.281C1825.918,170.55,1793.555,202.903,1793.555,242.832z"/>
					
						<linearGradient id="SVGID_5_" gradientUnits="userSpaceOnUse" x1="4434.6045" y1="339.4575" x2="4530.2588" y2="331.5901" gradientTransform="matrix(-1 0 0 1 4774.3984 630.6797)">
						<stop  offset="0" style="stop-color:#FCB315"/>
						<stop  offset="0.1521" style="stop-color:#FBAE16"/>
						<stop  offset="0.343" style="stop-color:#F99E18"/>
						<stop  offset="0.5545" style="stop-color:#F6851B"/>
						<stop  offset="0.7793" style="stop-color:#F2611F"/>
						<stop  offset="1" style="stop-color:#ED3724"/>
					</linearGradient>
					<path fill="url(#SVGID_5_)" d="M243.785,966.602c0,29.334,23.774,53.107,53.104,53.107c29.326,0,53.104-23.773,53.104-53.107
						c0-29.32-23.778-53.094-53.104-53.094C267.559,913.508,243.785,937.279,243.785,966.602z"/>
					<path fill="#CEEBEF" d="M107.681,716.374c0,17.464,14.16,31.623,31.62,31.623c17.471,0,31.624-14.159,31.624-31.623
						c0-17.457-14.153-31.616-31.624-31.616C121.841,684.758,107.681,698.917,107.681,716.374z"/>
					
						<linearGradient id="SVGID_6_" gradientUnits="userSpaceOnUse" x1="3207.042" y1="322.2842" x2="3194.2405" y2="254.0102" gradientTransform="matrix(-1 0 0 1 4774.3984 630.6797)">
						<stop  offset="0" style="stop-color:#F7EC30"/>
						<stop  offset="0.4011" style="stop-color:#D6DE26"/>
						<stop  offset="1" style="stop-color:#8BC541"/>
					</linearGradient>
					<path fill="url(#SVGID_6_)" d="M1543.768,910.121c0,17.464,14.159,31.62,31.627,31.62c17.46,0,31.615-14.156,31.615-31.62
						s-14.155-31.62-31.615-31.62C1557.927,878.501,1543.768,892.657,1543.768,910.121z"/>
					<path fill="#CEEBEF" d="M216.5,263.847c0,44.399,35.997,80.387,80.39,80.387c44.396,0,80.387-35.988,80.387-80.387
						c0-44.399-35.991-80.384-80.387-80.384C252.497,183.463,216.5,219.448,216.5,263.847z"/>
					
						<linearGradient id="SVGID_7_" gradientUnits="userSpaceOnUse" x1="3209.3389" y1="288.5044" x2="3039.2898" y2="529.7366" gradientTransform="matrix(-1 0 0 1 4774.3984 630.6797)">
						<stop  offset="0" style="stop-color:#FCE400"/>
						<stop  offset="1" style="stop-color:#ED3424"/>
					</linearGradient>
					<path fill="url(#SVGID_7_)" d="M1679.563,1155.446c72.834-22.6,113.558-99.977,90.959-172.802
						c-22.604-72.834-99.976-113.56-172.803-90.954c-72.835,22.591-113.558,99.962-90.954,172.803
						C1529.365,1137.333,1606.729,1178.044,1679.563,1155.446z"/>
					<path fill="#EC297B" d="M301.239,805.706c47.919-14.869,74.71-65.769,59.841-113.685
						c-14.866-47.916-65.767-74.712-113.687-59.843c-47.919,14.866-74.708,65.771-59.841,113.688
						C202.422,793.784,253.323,820.575,301.239,805.706z"/>
					
						<linearGradient id="SVGID_8_" gradientUnits="userSpaceOnUse" x1="4457.1494" y1="352.1934" x2="4621.6582" y2="463.7247" gradientTransform="matrix(-1 0 0 1 4774.3984 630.6797)">
						<stop  offset="0" style="stop-color:#FCB315"/>
						<stop  offset="0.1521" style="stop-color:#FBAE16"/>
						<stop  offset="0.343" style="stop-color:#F99E18"/>
						<stop  offset="0.5545" style="stop-color:#F6851B"/>
						<stop  offset="0.7793" style="stop-color:#F2611F"/>
						<stop  offset="1" style="stop-color:#ED3724"/>
					</linearGradient>
					<path fill="url(#SVGID_8_)" d="M254.403,1173.342c67.471-20.937,105.196-92.599,84.259-160.063
						c-20.932-67.474-92.598-105.196-160.069-84.267c-67.467,20.942-105.191,92.607-84.255,160.074
						C115.271,1156.559,186.941,1194.288,254.403,1173.342z"/>
					<path fill="#E6E430" d="M332.069,934.527c31.508-9.778,49.122-43.241,39.343-74.749c-9.775-31.501-43.238-49.115-74.746-39.342
						c-31.498,9.779-49.112,43.238-39.336,74.739C267.102,926.686,300.568,944.3,332.069,934.527z"/>
					<path opacity="0.86" fill="#F5E600" enable-background="new    " d="M1673.073,615.723
						c35.55-11.032,55.429-48.793,44.396-84.346c-11.034-35.543-48.794-55.422-84.34-44.392
						c-35.553,11.028-55.422,48.79-44.395,84.339C1599.765,606.87,1637.527,626.75,1673.073,615.723z"/>
					<path fill="#F9EC31" d="M398.713,720.579c24.631-7.639,38.394-33.79,30.756-58.414c-7.639-24.62-33.794-38.385-58.418-30.742
						c-24.613,7.639-38.382,33.787-30.743,58.408C347.948,714.454,374.1,728.216,398.713,720.579z"/>
					<path fill="#90278E" d="M253.306,820.586c16.681-5.178,26.001-22.894,20.824-39.57c-5.167-16.677-22.887-26.005-39.567-20.831
						c-16.677,5.18-26.005,22.896-20.824,39.574C218.91,816.433,236.625,825.761,253.306,820.586z"/>
					<path fill="#F6921E" d="M1507.298,825.876c18.785-5.832,29.295-25.792,23.46-44.584c-5.828-18.789-25.792-29.298-44.577-23.463
						c-18.792,5.832-29.298,25.792-23.47,44.576C1468.543,821.201,1488.502,831.708,1507.298,825.876z"/>
					<path fill="#5FA017" d="M1831.772,941.089c7.593-2.353,11.845-10.429,9.486-18.026c-2.354-7.597-10.433-11.849-18.029-9.486
						c-7.598,2.353-11.846,10.433-9.487,18.024C1816.099,939.197,1824.172,943.449,1831.772,941.089z"/>
					
						<linearGradient id="SVGID_9_" gradientUnits="userSpaceOnUse" x1="3154.2109" y1="-106.3496" x2="3205.4172" y2="-70.0784" gradientTransform="matrix(-1 0 0 1 4774.3984 630.6797)">
						<stop  offset="0" style="stop-color:#FCB315"/>
						<stop  offset="0.1521" style="stop-color:#FBAE16"/>
						<stop  offset="0.343" style="stop-color:#F99E18"/>
						<stop  offset="0.5545" style="stop-color:#F6851B"/>
						<stop  offset="0.7793" style="stop-color:#F2611F"/>
						<stop  offset="1" style="stop-color:#ED3724"/>
					</linearGradient>
					<path fill="url(#SVGID_9_)" d="M1616.386,563.86c16.682-5.171,26.004-22.888,20.83-39.57
						c-5.175-16.677-22.894-26.005-39.573-20.831c-16.674,5.174-26.002,22.894-20.822,39.577
						C1581.993,559.709,1599.712,569.034,1616.386,563.86z"/>
					
						<linearGradient id="SVGID_10_" gradientUnits="userSpaceOnUse" x1="3159.7949" y1="79.2603" x2="2986.9834" y2="-27.4137" gradientTransform="matrix(-1 0 0 1 4774.3984 630.6797)">
						<stop  offset="0" style="stop-color:#F9EC31"/>
						<stop  offset="0.4011" style="stop-color:#D6DE23"/>
						<stop  offset="1" style="stop-color:#8BC53F"/>
					</linearGradient>
					<path fill="url(#SVGID_10_)" d="M1725.58,752.813c51.625-16.021,80.49-70.853,64.471-122.478
						c-16.017-51.625-70.854-80.49-122.479-64.47c-51.622,16.024-80.487,70.855-64.47,122.479
						C1619.123,739.97,1673.958,768.831,1725.58,752.813z"/>
					<path fill="#8BC53F" d="M1605.949,485.719c6.122-1.896,9.545-8.399,7.646-14.525c-1.896-6.122-8.399-9.55-14.525-7.65
						c-6.125,1.902-9.549,8.408-7.649,14.534C1593.317,484.198,1599.824,487.621,1605.949,485.719z"/>
					
						<linearGradient id="SVGID_11_" gradientUnits="userSpaceOnUse" x1="3148.126" y1="163.7046" x2="3267.4805" y2="163.7046" gradientTransform="matrix(-1 0 0 1 4774.3984 630.6797)">
						<stop  offset="0.011" style="stop-color:#F58A1F"/>
						<stop  offset="1" style="stop-color:#ED3424"/>
					</linearGradient>
					<path fill="url(#SVGID_11_)" d="M1584.275,851.367c31.471-9.762,49.065-43.197,39.302-74.672
						c-9.766-31.467-43.193-49.063-74.663-39.293c-31.471,9.766-49.063,43.191-39.302,74.657
						C1519.378,843.536,1552.806,861.137,1584.275,851.367z"/>
					
						<linearGradient id="SVGID_12_" gradientUnits="userSpaceOnUse" x1="2958.1143" y1="-296.7642" x2="3143.1487" y2="-333.1101" gradientTransform="matrix(-1 0 0 1 4774.3984 630.6797)">
						<stop  offset="0" style="stop-color:#CADA36"/>
						<stop  offset="1" style="stop-color:#4C99D3"/>
					</linearGradient>
					<path opacity="0.8" fill="url(#SVGID_12_)" enable-background="new    " d="M1761.087,427.228
						c61.257-19.005,95.505-84.072,76.493-145.334c-19.011-61.257-84.074-95.504-145.336-76.499
						c-61.256,19.017-95.505,84.074-76.493,145.331C1634.757,411.986,1699.824,446.233,1761.087,427.228z"/>
					<path fill="#EC2D77" d="M1747.797,1023.565c0,25.779,20.897,46.679,46.675,46.679c25.778,0,46.681-20.897,46.681-46.679
						c0-25.773-20.9-46.676-46.681-46.676C1768.694,976.892,1747.797,997.792,1747.797,1023.565z"/>
					
						<linearGradient id="SVGID_13_" gradientUnits="userSpaceOnUse" x1="4701.4014" y1="89.5" x2="4786.7402" y2="40.4302" gradientTransform="matrix(-1 0 0 1 4774.3984 630.6797)">
						<stop  offset="0" style="stop-color:#EA2B7B"/>
						<stop  offset="1" style="stop-color:#26AAE1"/>
					</linearGradient>
					<path fill="url(#SVGID_13_)" d="M65.577,762.78c31.508-9.775,49.122-43.245,39.347-74.742
						c-9.776-31.508-43.242-49.118-74.746-39.351c-31.501,9.781-49.119,43.243-39.343,74.75
						C0.61,754.942,34.073,772.556,65.577,762.78z"/>
					<path fill="#E6E430" d="M139.299,799.232c-46.692,0-84.553,37.862-84.553,84.563c0,43.813,33.333,79.847,76.022,84.122v178.467
						c0.26,0.21,0.513,0.437,0.753,0.677c3.879,3.882,7.64,7.813,11.202,11.939c1.696,0.732,3.421,1.414,5.113,2.087v-193.17
						c42.692-4.275,76.022-40.311,76.022-84.122C223.859,837.097,186.005,799.232,139.299,799.232z"/>
					
						<linearGradient id="SVGID_14_" gradientUnits="userSpaceOnUse" x1="3000.083" y1="306.417" x2="3195.8271" y2="306.417" gradientTransform="matrix(-1 0 0 1 4774.3984 630.6797)">
						<stop  offset="0" style="stop-color:#59B6DD"/>
						<stop  offset="1" style="stop-color:#08AFD8"/>
					</linearGradient>
					<path opacity="0.48" fill="url(#SVGID_14_)" enable-background="new    " d="M1676.441,715.693
						c-54.046,0-97.87,43.816-97.87,97.869c0,52.011,40.584,94.526,91.804,97.662V1158.5c3.769-1.659,7.533-3.326,11.351-4.872
						c0.271-0.108,0.527-0.185,0.781-0.247V911.227c51.229-3.132,91.809-45.651,91.809-97.661
						C1774.313,759.512,1730.496,715.693,1676.441,715.693z"/>
					
						<linearGradient id="SVGID_15_" gradientUnits="userSpaceOnUse" x1="3013.9434" y1="-208.0771" x2="2686.4873" y2="-220.5754" gradientTransform="matrix(-1 0 0 1 4774.3984 630.6797)">
						<stop  offset="0.2088" style="stop-color:#8FAD00"/>
						<stop  offset="0.9231" style="stop-color:#59A100"/>
					</linearGradient>
					<path opacity="0.87" fill="url(#SVGID_15_)" stroke="#FFFFFF" stroke-width="1.1918" enable-background="new    " d="
						M1841.034,505.565c15.163,0,28.386-4.463,35.393-11.076c11.317,5.774,25.592,9.229,41.122,9.229
						c30.113,0,55.538-12.967,63.747-30.756c15.093,4.804,33.389,7.619,53.118,7.619c51.72,0,93.646-19.313,93.646-43.126
						c0-15.811-18.478-29.624-46.023-37.137c0.008-0.238,0.032-0.482,0.032-0.722c0-39.812-49.797-72.085-111.215-72.085
						c-29.804,0-56.847,7.611-76.813,19.981c-7.254-1.759-15.109-2.731-23.318-2.731c-36.744,0-66.535,19.309-66.535,43.13
						c0,1.051,0.076,2.089,0.19,3.122c-27.219,5.405-47.018,21.823-47.018,41.238c0,19.53,20.033,36.008,47.492,41.319
						c-2.898,3.022-4.55,6.438-4.55,10.07C1800.304,495.748,1818.539,505.565,1841.034,505.565z"/>
					<path fill="#F9EC31" d="M222.826,718.507c6.972-2.164,10.859-9.563,8.702-16.534c-2.161-6.968-9.566-10.86-16.534-8.7
						c-6.972,2.159-10.863,9.563-8.702,16.532C208.453,716.771,215.857,720.667,222.826,718.507z"/>
					<path opacity="0.9" fill="#0069FF" enable-background="new    " d="M1494.097,890.245
						c11.114-3.444,17.327-15.247,13.873-26.358c-3.445-11.112-15.246-17.327-26.36-13.876
						c-11.104,3.443-17.316,15.247-13.869,26.357C1471.182,887.486,1482.988,893.692,1494.097,890.245z"/>
					<path opacity="0.9" fill="#0069FF" enable-background="new    " d="M225.15,292.909c11.111-3.45,17.328-15.247,13.873-26.361
						c-3.447-11.115-15.244-17.328-26.354-13.877c-11.115,3.444-17.324,15.251-13.876,26.362
						C202.24,290.14,214.043,296.353,225.15,292.909z"/>
					<path fill="#FFFFFF" d="M628.495,1065.124h-0.021l3.706,0.542c0.005-0.073,1.664-11.201,1.664-30.213
						c0.05-70.443-22.771-249.612-235.792-375.434C251.119,573.144,170.461,547.888,53.166,355.662h-4.407
						c118.281,194.59,200.345,220.75,347.39,307.57c211.639,125.063,233.924,302.479,233.973,372.222
						C630.122,1054.243,628.495,1065.093,628.495,1065.124z M616.295,1043.621c0,13.198-0.979,20.584-0.979,20.603v0.014
						l3.704,0.475c0.007-0.073,1.006-7.711,1.006-21.089c0.062-64.192-22.914-261.023-285.756-387.072
						C157.146,571.508,73.726,545.071-54.259,355.662h-4.538c129.119,191.822,213.976,219.181,391.45,304.253
						C594.022,785.366,616.221,980.212,616.295,1043.621z M-400.583,355.662c176.328,180.976,258.836,213.697,542.625,294.168
						c415.677,118.103,433.813,362.123,433.955,405.172c0,4.284-0.187,6.527-0.187,6.534l3.712,0.302
						c0-0.043,0.202-2.435,0.202-6.836c0.138-44.071-19.517-290.504-436.667-408.761
						c-282.539-80.238-364.011-112.223-538.434-290.58L-400.583,355.662L-400.583,355.662z M602.153,1063.336h-0.014l3.719,0.413
						c0.013-0.062,0.598-5.313,0.598-14.69c0.086-57.563-22.328-271.366-335.942-395.962
						C61.131,569.813-23.744,541.862-164.187,355.662h-4.716c141.769,188.75,228.019,217.507,438.036,300.9
						C581.25,780.73,602.622,992.363,602.721,1049.059C602.721,1058.287,602.153,1063.317,602.153,1063.336z M589.3,1052.665
						c0,6.374-0.327,9.758-0.327,9.771l3.726,0.356c0.012-0.062,0.351-3.618,0.351-10.128
						c0.111-50.812-21.169-281.096-386.271-402.989c-244.274-81.688-328.754-111.438-484.233-294.014h-4.932
						C-125.325,540.835-39.593,571.35,205.587,653.207C569.203,774.813,589.189,1002.799,589.3,1052.665z"/>
				</g>
			</g>
		</g>
	</g>
</g>
</svg>
